<svg id="Слой_1" data-name="Слой 1" xmlns="http://www.w3.org/2000/svg" viewBox="0 0 346 301.8"><defs><style>.cls-1{fill:#b96f55;}.cls-2{fill:#732b2d;}.cls-3{fill:#e0d5c3;}.cls-4{fill:#e6e6d5;}.cls-5{fill:#eedece;}.cls-6{fill:#bc9c81;}.cls-7{fill:#93373f;}.cls-8{fill:#ead6ad;}.cls-9{fill:#dcc6ad;}.cls-10{fill:#571f1b;}</style></defs><rect class="cls-1" width="346" height="301.8"/><path class="cls-2" d="M0,257.38c23.06.54,31.5-5.1,34.77-10.72,1.21-2.09,2.19-7.38,4.08-17.87,2.86-15.82,2.72-19.38,5.62-20.94s6.52.2,19.91,8.17c21.66,12.9,21.85,14,26.05,14.81,11.81,2.22,25.34-3.83,33.19-12.26,10-10.75,5.58-19.78,16.85-28.08,1.79-1.32,10.8-8,19.91-5.62,5.94,1.52,6.93,5.57,12.77,6.13,6.49.63,14.17-3.5,14.81-8.17.76-5.6-9.2-7.76-9.19-14.3s10-13.86,19.4-14.81c8.13-.81,12.94,3.4,15.83.51,2.58-2.58-.45-6.76,2.55-14.29,1-2.55,2-5.12,4.6-6.64,2.4-1.43,3.73-.5,12.76,0,6.38.35,8,0,10.22,1.53,1.93,1.33,2.21,2.65,4.08,5.62,2.48,3.91,6.25,9.87,10.22,10.21,5.53.48,13.27-9.8,11.23-16.85s-13-7.57-12.77-11.24c.27-3.44,10.32-7.22,18.9-4.59,6.74,2.06,13.28,8.3,12.25,12.77s-9.19,4.14-9.7,8.17,7.12,10.11,12.77,8.68c2-.51,3.36-1.86,5.1-3.58a22.74,22.74,0,0,0,5.11-7.66s1.75-4.43.51-19.91h0c-3.9-9.2-3.3-12.22-2-13.28,2.1-1.77,5.84,2.1,12.25,1.53,8.1-.72,13.56-7.92,13.79-7.66s-8.07,7.78-8.17,7.66A38.27,38.27,0,0,0,329.4,91.94c3.06-5.6,2.84-9.12,5.62-10.22,3.27-1.28,7.65,2,11,5.11V0H0Z"/><ellipse class="cls-3" cx="226.85" cy="211.64" rx="90.86" ry="60.87"/><ellipse class="cls-4" cx="226.87" cy="207.93" rx="90.86" ry="60.87"/><ellipse class="cls-5" cx="227.71" cy="207.93" rx="76.12" ry="48.42"/><ellipse class="cls-3" cx="227.71" cy="207.93" rx="65.86" ry="41.89"/><path class="cls-4" d="M317.56,154.3c-10-3.5-21.32,5.12-27.45,18.44s-15.65,26.41-5.68,29.91a15.94,15.94,0,0,0,3.87.78c11.45,1.06,32.29-5.52,37.55-17.16.13-.28.25-.56.36-.85C331.4,171.74,327.52,157.8,317.56,154.3Zm-26.28,34.07-1.61.09L299.9,172.6a13.61,13.61,0,0,1,11.45-6.13h0c5.88,0,10.83,4.64,10.71,10.3a10.89,10.89,0,0,1-10.45,10.44l-12.22.7Z"/><path class="cls-6" d="M284,207.69c0,19.76-25.19,32.49-56.26,32.49s-56.26-12.73-56.26-32.49,25.19-35.79,56.26-35.79S284,187.92,284,207.69Z"/><path class="cls-4" d="M298,171.9c0,33.6-32,60.83-71.48,60.83s-71.47-27.23-71.47-60.83,32.84-47.58,72.32-47.58S298,138.3,298,171.9Z"/><path class="cls-3" d="M296.05,154.9c-1.58-6.35-6.42-12.17-13.61-17a59,59,0,0,0-14.39-7.58l.27.42c-11.59-4.4-25.94-7-41.47-7-38.53,0-69.77,16-69.77,35.81a44.28,44.28,0,0,0-1.69,12.39c0,33.6,32,60.83,71.48,60.83q3,0,6-.21c-29.25-2.07-53.5-19.12-62.12-42.11-1.48-4,2.86-7.6,6.72-5.61,12.63,6.5,30.1,10.52,49.39,10.52a119.93,119.93,0,0,0,39.79-6.39c3.85-1.37,7.6,2.31,6.06,6l0,.1a74.75,74.75,0,0,1-33,36.72c33.78-4.84,59.53-29.85,59.53-60A43.84,43.84,0,0,0,296.05,154.9Z"/><ellipse class="cls-4" cx="226.53" cy="158.96" rx="69.77" ry="35.81"/><path class="cls-6" d="M226.53,187.76c-17.6,0-34.05-3.47-46.31-9.76-10.83-5.56-17-12.8-17-19.87s6.21-14.3,17-19.86c12.26-6.3,28.71-9.76,46.31-9.76s34,3.46,46.32,9.76c10.82,5.56,17,12.8,17,19.86s-6.21,14.31-17,19.87C260.58,184.29,244.13,187.76,226.53,187.76Z"/><path class="cls-7" d="M227.71,142.94c-17.6,0-34.05,3.46-46.31,9.76-7.66,3.93-13,8.7-15.48,13.66,2.81,4.23,7.69,8.25,14.3,11.64,12.26,6.29,28.71,9.76,46.31,9.76s34-3.47,46.32-9.76c7.65-3.93,13-8.71,15.47-13.67-2.8-4.22-7.69-8.24-14.3-11.63C261.76,146.4,245.31,142.94,227.71,142.94Z"/><path class="cls-3" d="M325.85,186.27c-5.26,11.64-26.1,18.22-37.55,17.16l3-15.06.69-3.46,7.42,3,4.13,1.67s4.2.63,12.08-2.34C318.33,186.21,322.1,186,325.85,186.27Z"/><path class="cls-2" d="M252.52,184.91c-.06-1.45-32.75-4.64-46.32-9.76a18.54,18.54,0,0,1-4.92-2.85c-4.36-3.53-8.07-10-6-13.66,1-1.77,2.44-1.3,6.92-4.42a40.29,40.29,0,0,0,5.19-4.37c2.7-2.49,8-5.36,19.62-6.91-17.33.09-33.5,3.55-45.6,9.76-7.66,3.93-13,8.7-15.48,13.66,2.81,4.23,7.69,8.25,14.3,11.64,16.21,8.32,31.51,9.63,46.31,9.76C241.54,187.89,252.56,185.75,252.52,184.91Z"/><path class="cls-1" d="M246.86,184.78a48,48,0,0,0-5.46.13c-21.33.9-33.16-6.27-33.16-6.27-3.26-2-6.38-4.64-11.81-5.27-2.65-.3-3.17.19-6.12.11-8.14-.21-15.95-4.23-15.64-6.32.26-1.78,6.23-.71,10.17-5.36,1.22-1.44,1.06-2,2.3-4,2.46-3.92,5.82-6,9.13-8a47.64,47.64,0,0,1,15.82-6c-11.58,1.42-22.15,4.43-30.69,8.81-7.66,3.93-13,8.7-15.48,13.66,2.81,4.23,7.69,8.25,14.3,11.64,12.26,6.29,28.71,9.76,46.31,9.76a121.83,121.83,0,0,0,26.7-2.86h-.71C250.62,184.91,248.73,184.86,246.86,184.78Z"/><path class="cls-2" d="M197.8,179.14c0,.51-1,.92-1.5.92a.92.92,0,1,1,0-1.84C196.83,178.22,197.8,178.63,197.8,179.14Z"/><ellipse class="cls-2" cx="213.19" cy="183.77" rx="0.9" ry="0.87"/><path class="cls-2" d="M204.69,181.48a1.48,1.48,0,0,1-2.95,0c0-.79-.07-1.84.74-1.84S204.69,180.69,204.69,181.48Z"/><ellipse class="cls-2" cx="200.36" cy="176.68" rx="0.31" ry="0.3"/><path class="cls-2" d="M194,176.44a.55.55,0,0,1-.56.54c-.31,0-.78.15-.78-.15s.47-.93.78-.93A.55.55,0,0,1,194,176.44Z"/><path class="cls-2" d="M191,178.05c0,.39-.32,1.09-.72,1.09s-1,.38-1,0,.62-1.4,1-1.4S191,177.67,191,178.05Z"/><ellipse class="cls-2" cx="193.72" cy="182.17" rx="0.28" ry="0.27"/><ellipse class="cls-2" cx="197.95" cy="182.58" rx="0.15" ry="0.14"/><path class="cls-2" d="M200,180.66c0,.29-.59,0-.89,0a.51.51,0,1,1,0-1C199.45,179.64,200,180.38,200,180.66Z"/><ellipse class="cls-2" cx="196.62" cy="176.98" rx="0.63" ry="0.61"/><ellipse class="cls-2" cx="208.25" cy="180.58" rx="0.44" ry="0.43"/><ellipse class="cls-2" cx="208.19" cy="184.16" rx="1.31" ry="1.26"/><ellipse class="cls-2" cx="185.42" cy="176.24" rx="1.39" ry="1.34"/><path class="cls-2" d="M191.77,175.09c0,.37-.87,1.15-1.26,1.15a.67.67,0,1,1,0-1.34C190.9,174.9,191.77,174.72,191.77,175.09Z"/><ellipse class="cls-2" cx="186.91" cy="179.6" rx="0.48" ry="0.46"/><ellipse class="cls-2" cx="181.56" cy="174.37" rx="0.55" ry="0.53"/><path class="cls-2" d="M182.75,177a.6.6,0,0,1-1.19,0c0-.31.4-1.11.73-1.11S182.75,176.7,182.75,177Z"/><ellipse class="cls-2" cx="177.77" cy="173.05" rx="0.31" ry="0.3"/><path class="cls-2" d="M173.08,171.19a1.11,1.11,0,0,1,1.13-1.08c.61,0,1.55.53,1.55,1.13s-.94,1-1.55,1A1.11,1.11,0,0,1,173.08,171.19Z"/><path class="cls-2" d="M178.79,175.24a.34.34,0,0,1-.35.33c-.2,0-.67,0-.67-.2s.47-.47.67-.47A.35.35,0,0,1,178.79,175.24Z"/><ellipse class="cls-2" cx="179.29" cy="174.08" rx="0.25" ry="0.24"/><ellipse class="cls-2" cx="177.37" cy="171.24" rx="0.4" ry="0.39"/><ellipse class="cls-2" cx="172.11" cy="169.7" rx="0.18" ry="0.17"/><ellipse class="cls-2" cx="174.01" cy="169.32" rx="0.66" ry="0.63"/><ellipse class="cls-2" cx="170.34" cy="166.73" rx="0.15" ry="0.14"/><path class="cls-2" d="M171.28,170c0,.32-.43-.1-.77-.1a.58.58,0,1,1,0-1.16C170.85,168.69,171.28,169.63,171.28,170Z"/><ellipse class="cls-2" cx="172.66" cy="167.83" rx="0.37" ry="0.36"/><path class="cls-2" d="M174.67,165c0,.27-.88.25-1.15.25a.48.48,0,1,1,0-1C173.79,164.32,174.67,164.76,174.67,165Z"/><path class="cls-2" d="M171.12,164.35a.39.39,0,0,1-.39.38.38.38,0,0,1-.39-.38c0-.21.17-.84.39-.84S171.12,164.14,171.12,164.35Z"/><ellipse class="cls-2" cx="169.09" cy="166.14" rx="0.33" ry="0.32"/><ellipse class="cls-2" cx="176.06" cy="161.98" rx="1.39" ry="1.34"/><path class="cls-2" d="M184.27,157.28c0,.66-1.78,1.68-2.46,1.68s0-1,0-1.68a1.23,1.23,0,0,1,2.46,0Z"/><path class="cls-2" d="M181.4,161.3a.77.77,0,0,1-.79.76c-.44,0-1-.09-1-.51a1.18,1.18,0,0,1,1-1A.77.77,0,0,1,181.4,161.3Z"/><ellipse class="cls-2" cx="178.44" cy="159.08" rx="0.35" ry="0.34"/><ellipse class="cls-2" cx="175.56" cy="159.23" rx="0.51" ry="0.49"/><ellipse class="cls-2" cx="184.27" cy="154.48" rx="0.25" ry="0.24"/><ellipse class="cls-2" cx="188.29" cy="151.25" rx="0.5" ry="0.48"/><ellipse class="cls-2" cx="186.51" cy="153.93" rx="0.58" ry="0.55"/><path class="cls-2" d="M181.56,156.22c0,.45-.57.71-1,.71a.83.83,0,1,1,0-1.66A1.13,1.13,0,0,1,181.56,156.22Z"/><ellipse class="cls-2" cx="183.69" cy="160.53" rx="0.33" ry="0.32"/><ellipse class="cls-2" cx="191.53" cy="150.59" rx="0.53" ry="0.51"/><ellipse class="cls-2" cx="194.17" cy="149.19" rx="0.17" ry="0.16"/><ellipse class="cls-2" cx="197.93" cy="147.66" rx="0.33" ry="0.32"/><ellipse class="cls-2" cx="200.81" cy="146.57" rx="0.14" ry="0.14"/><ellipse class="cls-2" cx="219.03" cy="184.91" rx="0.28" ry="0.27"/><ellipse class="cls-2" cx="221.93" cy="186.48" rx="0.27" ry="0.26"/><ellipse class="cls-2" cx="227.29" cy="186.34" rx="0.42" ry="0.41"/><path class="cls-5" d="M242.17,170.91h0c-6.4-.86-13.3-6.28-12.83-12.78q.27-2.87.83-5.75c1.47-6.56,9.33-11.3,16.57-10.3h0c7.36.94,14.16,7.31,12.71,13.69-.42,1.88-.93,3.75-1.5,5.62C255.67,167.69,248.5,171.72,242.17,170.91Z"/><ellipse class="cls-8" cx="245.47" cy="149.41" rx="6.11" ry="12.19" transform="translate(73.69 379.78) rotate(-84.62)"/><path class="cls-8" d="M242,170.44a10,10,0,0,1-4.84-2.23c-.33-.35-3.1-2.51-3-5.24.13-2,1.87-2.25,1.75-4.08s-2.23-2.38-1.85-3.84c.46-1.7,3.58-1.94,3.58-3.37,0-1-1.6-1.37-1.54-2.57,0-.27.34-.82,1.49-2,3.51-3.49,8.61-3.53,9.48-3.5l-1.73-.28c-6.3-1.07-12.79,1.32-14.41,6.49a56.9,56.9,0,0,0-1.82,10.66c-.1,5.12,5.46,9,10.36,9.8C240.32,170.35,241.17,170.39,242,170.44Z"/><path class="cls-9" d="M245.76,154.73c-6.68-.92-11.69-4.37-11.19-7.71a4,4,0,0,1,1.79-2.62c-1.69.81-2.79,1.95-3,3.32-.49,3.34,4.52,6.79,11.2,7.71,4.66.64,8.89-.13,11.2-1.78A18.47,18.47,0,0,1,245.76,154.73Z"/><path class="cls-5" d="M211.59,164h0c-6.37,2.54-13.16.27-17.53-5.37-1.19-1.67-2.39-3.34-3.56-5-4.22-5.62-.2-13,7-15.94h0a15.54,15.54,0,0,1,18.93,5.66c1.11,1.77,2.18,3.56,3.17,5.35C223.14,154.86,218.13,161.49,211.59,164Z"/><ellipse class="cls-8" cx="201.57" cy="144.37" rx="12.1" ry="6.16" transform="translate(-43.11 104.3) rotate(-26.31)"/><path class="cls-8" d="M211.5,163.9a10.64,10.64,0,0,1-5.64.46c-.5-.12-3.68-.84-5.16-3.26-1.08-1.76,0-2.67-1.26-4.15s-3.31-1.12-4.08-2.47c-.9-1.56,1.25-3,.22-4.17-.75-.85-2.22-.46-3.06-1.44-.18-.22-.34-.79-.23-2.2.44-4.33,4.89-7,5.46-7.37l-1.49.59c-5.74,2.28-10.33,7.23-7.21,11.69,2.08,3.09,4.37,6.21,6.45,9.35a11,11,0,0,0,13.44,4.13C209.77,164.67,210.63,164.28,211.5,163.9Z"/><path class="cls-9" d="M204.86,148.65c-6.09,2.79-12.25,2.58-13.75-.47a3.84,3.84,0,0,1,0-3.12c-.95,1.57-1.21,3.1-.59,4.35,1.5,3.05,7.66,3.25,13.76.46,4.24-1.94,7.34-4.84,8.31-7.44A17.67,17.67,0,0,1,204.86,148.65Z"/><path class="cls-5" d="M222.31,175h0c-6.34-.19-13.53-5.07-14.25-11.54q-.21-2.87-.13-5.76c.31-6.55,7.95-12,15.25-11.81h0c7.33.15,14.77,5.94,14.52,12.46-.1,1.92-.3,3.83-.58,5.73C235.86,170.49,228.64,175.1,222.31,175Z"/><ellipse class="cls-8" cx="222.97" cy="153.25" rx="12.2" ry="6.11" transform="translate(-2.06 3.04) rotate(-0.78)"/><path class="cls-8" d="M222.13,174.69a9.56,9.56,0,0,1-5-1.81c-.34-.32-3.23-2.26-3.51-5-.14-2,1.61-2.39,1.22-4.19s-2.71-2.19-2.57-3.67c.18-1.73,3.41-2.22,3.17-3.63-.17-1-1.92-1.23-2.06-2.43,0-.26.23-.83,1.26-2.06,3.21-3.79,8.36-4.31,9.18-4.35l-1.76-.14c-6.35-.49-13.24,2.57-14,7.78a51.31,51.31,0,0,0,.09,10.66c.93,5.08,6.52,8.57,11.38,8.93C220.38,174.74,221.25,174.71,222.13,174.69Z"/><path class="cls-9" d="M223.89,158.5c-6.74-.17-12.13-3.05-12-6.42a4,4,0,0,1,1.47-2.79c-1.58,1-2.54,2.23-2.58,3.62-.09,3.37,5.3,6.25,12,6.42,4.71.12,8.82-1.1,10.92-3A18.33,18.33,0,0,1,223.89,158.5Z"/><path class="cls-7" d="M235.07,174.78c.14-1.42-6.58-4.52-12-3.09-1.57.41-2.28,1-3.93.91-3.08-.18-3.87-2.41-6.93-3-2.89-.56-6.23.64-6.34,1.76-.16,1.57,6,3.51,9.77,4.35C224.75,177.69,234.92,176.47,235.07,174.78Z"/><path class="cls-7" d="M239.69,171.27c-.06-1.11,4.14-3.28,7.21-2.58a3.34,3.34,0,0,0,2.08.05c1.1-.41,1-1.34,2.08-2.26a6.08,6.08,0,0,1,4.54-1,4.14,4.14,0,0,1,2.9,1.21c1.07,1.38.41,3.77-.82,5.1-.58.62-1.88,1.66-7.22,1.58C246.8,173.27,239.76,172.68,239.69,171.27Z"/><path class="cls-7" d="M198.33,165.37c0-1,2.64-1.64,3.72-1.82s3.13-.52,4.44.7c1,1,1.6,2.81.88,3.65C205.82,169.71,198.26,167.08,198.33,165.37Z"/><path class="cls-2" d="M209,171.58a8.57,8.57,0,0,1,5.87.81c1.35.77,1.64,1.56,2.92,1.72,1.7.22,3.15-.92,3.28-.7s-.42.71-1.13,1c-1.36.58-2.89-.1-4-.63s-1.11-.75-2.07-1.23A10.25,10.25,0,0,0,209,171.58Z"/><path class="cls-2" d="M241.31,171.55c-.08-.3,3.16-2.26,5.72-1.51a3,3,0,0,0,2,.18c.75-.29,1-.95,1.31-.85s.41.91,0,1.34-1.43-.05-3.35.07c-1.42.08-1.55.45-3.68.7C242.44,171.59,241.35,171.71,241.31,171.55Z"/><path class="cls-2" d="M197.66,166.86c-.15-.28,2.38-2.54,4.22-2,.58.18.82.56,1.39.5,1.06-.11,1.6-1.58,1.85-1.47s.16.74-.22,1.21c-.59.72-1.68.45-3.31.62C199,166,197.78,167.06,197.66,166.86Z"/><path class="cls-5" d="M82.76,219.09q-10.12-.5-20.4-.47c-6.37,0-13.1-4.56-14.15-10.57a94.61,94.61,0,0,1-.53-24.6c.76-6.12,7.87-11.24,15-11.23q11.35,0,22.81.54c7.17.35,14.08,5.76,14.33,11.86a98.67,98.67,0,0,1-2.45,24.48C95.84,215.08,89,219.39,82.76,219.09Z"/><ellipse class="cls-8" cx="74.64" cy="178.67" rx="5.72" ry="19.42" transform="translate(-105.83 248.84) rotate(-88.57)"/><path class="cls-9" d="M75.58,183.79c-10.52-.26-19-3-18.88-6.2,0-1,.84-1.83,2.24-2.59-2.45.9-3.92,2.06-4,3.35-.09,3.16,8.36,5.94,18.88,6.21,7.34.18,13.74-.9,17-2.65C87.31,183.2,81.78,184,75.58,183.79Z"/><path class="cls-6" d="M60.69,193a3.67,3.67,0,0,1,4-3.25c3.79,0,3.41,3.25,3.41,3.25Z"/><path class="cls-6" d="M77.7,193a3.67,3.67,0,0,1,4-3.25c3.79,0,3.41,3.25,3.41,3.25Z"/><path class="cls-6" d="M82.71,199.8s-.93,11.87-10.63,11.62-8.37-12.1-8.37-12.1Z"/><path class="cls-5" d="M103.81,236.4q-6.61-.33-13.33-.31c-4.15,0-8.56-3-9.24-6.91a62.15,62.15,0,0,1-.35-16.07c.5-4,5.14-7.34,9.78-7.34,5,0,9.92.11,14.9.36,4.69.23,9.2,3.76,9.36,7.75a64.43,64.43,0,0,1-1.6,16C112.36,233.78,107.91,236.6,103.81,236.4Z"/><ellipse class="cls-8" cx="98.51" cy="209.99" rx="3.74" ry="12.69" transform="translate(-113.87 303.23) rotate(-88.57)"/><path class="cls-9" d="M99.12,213.34c-6.87-.18-12.39-2-12.33-4.05,0-.63.55-1.2,1.46-1.7-1.6.59-2.56,1.35-2.59,2.19-.06,2.07,5.47,3.88,12.34,4.06,4.79.12,9-.59,11.09-1.73A29.11,29.11,0,0,1,99.12,213.34Z"/><path class="cls-6" d="M89.4,219.34A2.39,2.39,0,0,1,92,217.22c2.47,0,2.23,2.12,2.23,2.12Z"/><path class="cls-6" d="M100.51,219.34a2.39,2.39,0,0,1,2.62-2.12c2.48,0,2.23,2.12,2.23,2.12Z"/><path class="cls-6" d="M103.78,223.79s-.61,7.76-6.94,7.6-5.47-7.91-5.47-7.91Z"/><path class="cls-5" d="M54,234.44q-6.63-.33-13.33-.31c-4.16,0-8.56-3-9.25-6.91a61.73,61.73,0,0,1-.34-16.07c.49-4,5.14-7.34,9.77-7.34q7.42,0,14.91.36c4.68.22,9.19,3.76,9.36,7.74a64.46,64.46,0,0,1-1.6,16C62.53,231.81,58.08,234.63,54,234.44Z"/><ellipse class="cls-8" cx="48.68" cy="208.03" rx="3.74" ry="12.69" transform="translate(-160.49 251.51) rotate(-88.57)"/><path class="cls-9" d="M49.3,211.37c-6.88-.17-12.4-2-12.34-4.05,0-.62.55-1.2,1.47-1.69-1.61.58-2.57,1.34-2.59,2.19-.06,2.06,5.46,3.88,12.33,4.05,4.8.12,9-.59,11.09-1.73A29.05,29.05,0,0,1,49.3,211.37Z"/><path class="cls-6" d="M39.57,217.38a2.39,2.39,0,0,1,2.62-2.12c2.48,0,2.23,2.12,2.23,2.12Z"/><path class="cls-6" d="M50.68,217.38a2.4,2.4,0,0,1,2.63-2.12c2.47,0,2.22,2.12,2.22,2.12Z"/><path class="cls-6" d="M54,221.83s-.62,7.75-7,7.59-5.47-7.9-5.47-7.9Z"/><path class="cls-2" d="M172,59.51c4-1.89,5.3-2.87,7.44-3.6,3.55-1.22,6.9-.88,7-.57s-1.34.2-2.8,1.28c-1.92,1.42-1.76,3.09-3.07,3.39-1.15.27-1.5-1-3.22-1.14s-3.42,1-4.55,1.9c-2.35,1.8-2.76,3.52-3.8,3.35a2,2,0,0,1-1.33-2.26c.18-.52.72-.59,3.08-1.71Z"/><path class="cls-10" d="M130,84.24c4-1.89,5.3-2.87,7.44-3.61,3.56-1.21,6.9-.88,6.95-.57s-1.34.2-2.8,1.28c-1.92,1.43-1.76,3.09-3.07,3.39-1.15.27-1.5-1-3.22-1.13s-3.42,1-4.55,1.9C128.4,87.3,128,89,127,88.85a2,2,0,0,1-1.33-2.26c.18-.52.72-.6,3.08-1.72C129.13,84.67,129.56,84.44,130,84.24Z"/><path class="cls-10" d="M99.39,139.55c4-1.89,5.3-2.87,7.45-3.6,3.55-1.22,6.89-.88,6.94-.57s-1.34.2-2.79,1.28c-1.92,1.42-1.77,3.09-3.08,3.39-1.14.26-1.5-1-3.21-1.14s-3.43,1-4.56,1.9c-2.35,1.8-2.76,3.51-3.8,3.35A2,2,0,0,1,95,141.9c.18-.52.73-.6,3.08-1.71Z"/><path class="cls-5" d="M100.47,131.94c-2-.1-4.12-.15-6.19-.14a4.4,4.4,0,0,1-4.3-3.22,28.65,28.65,0,0,1-.16-7.46c.23-1.86,2.39-3.42,4.54-3.42s4.61.06,6.93.17,4.27,1.75,4.35,3.6a29.59,29.59,0,0,1-.75,7.43A4.44,4.44,0,0,1,100.47,131.94Z"/><ellipse class="cls-8" cx="98.01" cy="119.66" rx="1.74" ry="5.9" transform="translate(-24.07 214.66) rotate(-88.57)"/><path class="cls-9" d="M98.29,121.22c-3.19-.08-5.76-.92-5.73-1.88,0-.29.25-.56.68-.79-.75.27-1.19.62-1.2,1,0,1,2.53,1.8,5.73,1.88a11.52,11.52,0,0,0,5.15-.8A13.45,13.45,0,0,1,98.29,121.22Z"/><path class="cls-6" d="M93.77,124A1.12,1.12,0,0,1,95,123c1.15,0,1,1,1,1Z"/><path class="cls-6" d="M98.93,124a1.13,1.13,0,0,1,1.23-1,.9.9,0,0,1,1,1Z"/><path class="cls-6" d="M100.46,126.08s-.29,3.6-3.23,3.53-2.54-3.68-2.54-3.68Z"/><path class="cls-5" d="M26.1,133.7q-3.08-.15-6.2-.14a4.39,4.39,0,0,1-4.29-3.21,28.29,28.29,0,0,1-.16-7.47c.23-1.86,2.39-3.41,4.54-3.41,2.3,0,4.61,0,6.93.17,2.17.1,4.27,1.74,4.35,3.59a29.66,29.66,0,0,1-.75,7.44A4.46,4.46,0,0,1,26.1,133.7Z"/><ellipse class="cls-8" cx="23.63" cy="121.43" rx="1.74" ry="5.9" transform="translate(-98.35 142.03) rotate(-88.57)"/><path class="cls-9" d="M23.92,123c-3.2-.08-5.76-.92-5.73-1.88,0-.29.25-.56.68-.79-.75.28-1.2.63-1.21,1,0,1,2.54,1.8,5.74,1.89a11.67,11.67,0,0,0,5.15-.81A13.45,13.45,0,0,1,23.92,123Z"/><path class="cls-6" d="M19.4,125.78a1.12,1.12,0,0,1,1.22-1c1.15,0,1,1,1,1Z"/><path class="cls-6" d="M24.56,125.78a1.12,1.12,0,0,1,1.22-1c1.15,0,1,1,1,1Z"/><path class="cls-6" d="M26.08,127.84s-.28,3.61-3.22,3.53-2.55-3.67-2.55-3.67Z"/><path class="cls-5" d="M214.57,37.68q-3.07-.15-6.2-.14a4.41,4.41,0,0,1-4.3-3.22,29.16,29.16,0,0,1-.16-7.47c.23-1.85,2.39-3.41,4.55-3.41s4.61,0,6.92.17,4.28,1.75,4.36,3.6a30.06,30.06,0,0,1-.75,7.43A4.45,4.45,0,0,1,214.57,37.68Z"/><ellipse class="cls-8" cx="212.1" cy="25.4" rx="1.74" ry="5.9" transform="translate(181.42 236.81) rotate(-88.57)"/><path class="cls-9" d="M212.39,27c-3.2-.08-5.76-.92-5.74-1.88,0-.29.26-.56.68-.79-.74.27-1.19.62-1.2,1,0,1,2.54,1.8,5.73,1.88a11.57,11.57,0,0,0,5.16-.8A13.45,13.45,0,0,1,212.39,27Z"/><path class="cls-6" d="M207.87,29.75a1.12,1.12,0,0,1,1.22-1c1.15,0,1,1,1,1Z"/><path class="cls-6" d="M213,29.75a1.12,1.12,0,0,1,1.22-1c1.15,0,1,1,1,1Z"/><path class="cls-6" d="M214.55,31.82s-.28,3.6-3.23,3.53-2.54-3.68-2.54-3.68Z"/><path class="cls-5" d="M19.34,39.67c-2.05-.1-4.12-.14-6.19-.14a4.39,4.39,0,0,1-4.3-3.21,28.72,28.72,0,0,1-.16-7.47c.23-1.86,2.39-3.41,4.54-3.41s4.61,0,6.93.17,4.27,1.74,4.35,3.6a29.59,29.59,0,0,1-.75,7.43A4.44,4.44,0,0,1,19.34,39.67Z"/><ellipse class="cls-8" cx="16.88" cy="27.4" rx="1.74" ry="5.9" transform="translate(-10.94 43.59) rotate(-88.57)"/><path class="cls-9" d="M17.16,29C14,28.87,11.4,28,11.43,27.07c0-.29.25-.56.68-.79-.75.28-1.19.63-1.2,1,0,1,2.53,1.81,5.73,1.89a11.64,11.64,0,0,0,5.15-.81A13.66,13.66,0,0,1,17.16,29Z"/><path class="cls-6" d="M12.64,31.75a1.12,1.12,0,0,1,1.22-1c1.15,0,1,1,1,1Z"/><path class="cls-6" d="M17.8,31.75a1.13,1.13,0,0,1,1.23-1,.9.9,0,0,1,1,1Z"/><path class="cls-6" d="M19.33,33.82s-.29,3.6-3.23,3.52-2.54-3.67-2.54-3.67Z"/><path class="cls-5" d="M174.24,56.33c-1.44-.08-2.88-.13-4.34-.14a3.9,3.9,0,0,1-3.25-3.26,27.87,27.87,0,0,1-.22-7.47,3.82,3.82,0,0,1,3.45-3.36c1.66,0,3.34.06,5,.16a3.87,3.87,0,0,1,3.32,3.55,29.59,29.59,0,0,1-.67,7.44C177.12,55.06,175.55,56.41,174.24,56.33Z"/><ellipse class="cls-8" cx="172.51" cy="44.01" rx="1.74" ry="4.12" transform="translate(121.71 214.64) rotate(-87.73)"/><path class="cls-9" d="M172.71,45.56c-2.23-.08-4-.92-4-1.88a1.07,1.07,0,0,1,.48-.79c-.52.27-.83.63-.84,1,0,1,1.77,1.8,4,1.88A6,6,0,0,0,176,45,6.8,6.8,0,0,1,172.71,45.56Z"/><path class="cls-6" d="M169.55,48.35s0-1,.85-1,.73,1,.73,1Z"/><path class="cls-6" d="M173.16,48.35s.05-1,.85-1,.73,1,.73,1Z"/><path class="cls-6" d="M174.23,50.42S174,54,172,54s-1.78-3.67-1.78-3.67Z"/><path class="cls-5" d="M88.16,90.13Q85.09,90,82,90a4.4,4.4,0,0,1-4.29-3.21,28.72,28.72,0,0,1-.16-7.47c.23-1.86,2.39-3.41,4.54-3.41,2.3,0,4.61,0,6.93.16,2.17.11,4.27,1.75,4.35,3.6a29.66,29.66,0,0,1-.75,7.44A4.46,4.46,0,0,1,88.16,90.13Z"/><ellipse class="cls-8" cx="85.7" cy="77.86" rx="1.74" ry="5.9" transform="translate(5.72 161.58) rotate(-88.57)"/><path class="cls-9" d="M86,79.41c-3.19-.08-5.76-.92-5.73-1.88,0-.29.25-.56.68-.79-.75.28-1.19.63-1.21,1,0,1,2.54,1.8,5.74,1.88a11.52,11.52,0,0,0,5.15-.8A13.45,13.45,0,0,1,86,79.41Z"/><path class="cls-6" d="M81.46,82.2a1.11,1.11,0,0,1,1.22-1c1.15,0,1,1,1,1Z"/><path class="cls-6" d="M86.62,82.2a1.11,1.11,0,0,1,1.22-1c1.15,0,1,1,1,1Z"/><path class="cls-6" d="M88.15,84.27s-.29,3.61-3.23,3.53-2.54-3.67-2.54-3.67Z"/><path class="cls-5" d="M136,83q-3.08-.15-6.2-.14a4.39,4.39,0,0,1-4.29-3.21,28.72,28.72,0,0,1-.17-7.47c.24-1.86,2.39-3.41,4.55-3.41s4.61,0,6.92.16,4.28,1.75,4.36,3.6a30.14,30.14,0,0,1-.75,7.44A4.46,4.46,0,0,1,136,83Z"/><ellipse class="cls-8" cx="133.53" cy="70.74" rx="1.74" ry="5.9" transform="translate(59.49 202.46) rotate(-88.57)"/><path class="cls-9" d="M133.82,72.29c-3.2-.08-5.76-.92-5.74-1.88,0-.29.26-.56.68-.79-.74.27-1.19.63-1.2,1,0,1,2.54,1.8,5.73,1.88a11.57,11.57,0,0,0,5.16-.8A13.45,13.45,0,0,1,133.82,72.29Z"/><path class="cls-6" d="M129.3,75.08a1.11,1.11,0,0,1,1.22-1c1.15,0,1,1,1,1Z"/><path class="cls-6" d="M134.46,75.08a1.11,1.11,0,0,1,1.22-1c1.15,0,1,1,1,1Z"/><path class="cls-6" d="M136,77.15s-.28,3.61-3.23,3.53S130.21,77,130.21,77Z"/><path class="cls-2" d="M92.36,141.45c-.44,1-4-1-.57.91a18.44,18.44,0,0,0,2.31,1.26,10.69,10.69,0,0,0,7-.25,16.78,16.78,0,0,0,5.35-2.91,19.72,19.72,0,0,0,1.73-1.55c.6.72-3.73.22-.19,1.19,7.46,2.05,10.64-9.53,3.19-11.57-2.94-.8-5.64-1.42-8.51-.11a20.87,20.87,0,0,0-3.35,2.37c-.65.45-2.84,1.29-1,1.45-1-.09-2.31-1.27-3.27-1.71a8.84,8.84,0,0,0-5.59-1A9.93,9.93,0,0,0,82,135.39c-3.17,7,7.17,13.09,10.36,6.06Z"/><path class="cls-2" d="M139.57,67.58c-2.67,2.79-2.39,5.75-3.48,8.89-1.22,3.52-1.55,5.78-5.13,3.21-3.33-2.39-6.18-4.18-10.49-3.54a12.07,12.07,0,0,0-8.62,6c-4.1,6.56,6.27,12.59,10.37,6.05.29-.47,2.38,1.79,3.08,2.24a23.13,23.13,0,0,0,5,2.39c3.62,1.21,7.43,1.22,10.61-1.14,2.85-2.12,4-5,5.31-8.06a29.72,29.72,0,0,0,2-4.63,26.48,26.48,0,0,0,.32-2.79q.22-2.35-.42-.12c5.34-5.57-3.13-14.07-8.49-8.49Z"/><path class="cls-2" d="M166.39,64.31a16.31,16.31,0,0,0,3.51-2.73l-2.65,1.55c1.12-.46,2,.34,3,1a10.44,10.44,0,0,0,5.5,1.93c3.42,0,7.05-2.15,9.25-4.66,5.08-5.78-3.38-14.3-8.49-8.48.25-.28-1.45,1.26-1.4,1.14-1,.51-.5.51,1.58,0l-.77-.54c-1.06-1.26-4-2-5.56-2.33a12,12,0,0,0-5.8.22c-1.62.5-3.17,2.12-4.19,2.59-3,1.35-3.68,5.61-2.16,8.21,1.77,3,5.26,3.51,8.21,2.15Z"/><path class="cls-2" d="M200.28,43a24,24,0,0,1,3.33-2.07l-4.62.6c2.91.61,4.32,3.55,6.71,5.13a14,14,0,0,0,7.52,2.25c5.69.05,10.52-3,14.25-7.1,5.19-5.7-3.27-14.21-8.49-8.49-1.24,1.36-3,3.54-5.07,3.61C211.5,37,210,34,208.18,32.67c-5-3.62-9.1-3.36-14-.07-6.36,4.31-.37,14.71,6.05,10.36Z"/><path class="cls-2" d="M8.61,42.87c.14-.14.94-1.26,1.19-1.32l-2.32-.3c2.3,1.31,3.13,3.24,6.13,3.16s3.83-1.65,5.85-3.22l-2.12.88c.26,0,1.53,1.06,1.91,1.22a4.11,4.11,0,0,0,2.3.25A7.7,7.7,0,0,0,26,41.27c2.63-2.82-1.6-7.07-4.25-4.24a4.1,4.1,0,0,1-1.28.62c1.23.39,1.41.26.52-.38a4.84,4.84,0,0,0-1.92-1.15,4.86,4.86,0,0,0-2.92.21c-.76.3-1.6,1.67-2.19,1.81-1.48.35-3.16-2.39-5-2.48-2.37-.12-3.2,1.55-4.63,3-2.75,2.73,1.5,7,4.24,4.25Z"/><path class="cls-2" d="M76.93,92.1c1.43-1.31,2.43-1.7,4.28-1.1a5.79,5.79,0,0,0,3.2.55c.61-.1,1.11-.51,1.7-.63,3.35-.66,1.75.12,3.83.49a5,5,0,0,0,3.92-1.31c1.51-1.16,0-3.77-1.51-2.59-1.86,1.44-3.33-.36-5.3-.16a8.06,8.06,0,0,0-1.6.51,5,5,0,0,1-3.77,0c-3-1-4.66.13-6.87,2.16-1.42,1.31.7,3.43,2.12,2.12Z"/><path class="cls-2" d="M16.57,134.91c.65-1.12,1.12.46,2.24.7a2.16,2.16,0,0,0,2.23-.74,2,2,0,0,0-.36-3.25L21,134c-.8.85.64.93,1.17.89,1.39-.1,1.51-.61,3-.13.75.25,1.13.56,1.95.35,1.47-.38,1.54-1.87,3.17-1.17s3.29-1.82,1.52-2.59c-1-.43-2.28-1.16-3.41-.86-1,.27-1.79,1.42-2.62,2h1.52a9.66,9.66,0,0,0-2.83-1.3c-1.23-.14-1.91.68-3,.85l1.46.38c-1.15-1-2.65-1.88-4-.5a1.53,1.53,0,0,0,.31,2.36v0l-.39-1.46-.37.38,1.46-.38c-1.15-.24-1.55-1.66-2.93-1.7s-2.3,1.2-2.95,2.32a1.5,1.5,0,0,0,2.59,1.52Z"/><path class="cls-10" d="M32.72,156.11c1-3.75,5.94-20.44,21.45-31.32,6.92-4.86,7.82-2.85,19.74-8.51,8.6-4.08,24.38-11.58,34.05-24.85,10-13.75,2.67-18.9,11.91-36.43,1.93-3.65,14-26.56,36.77-33.36,14.91-4.45,23.05,1.4,36.08-6.81A40.18,40.18,0,0,0,206.68,0c-.08-.07-6,10.11-17.83,14.57-3.51,1.33-5.56,1.4-12.83,2.37-11.5,1.52-19.59,2.59-24.7,4-21.95,6.13-33.26,31.21-34.34,33.7a140.53,140.53,0,0,0-6.81,21.28c-1,4.12-1,5-1.36,6.29-3.81,14-27.85,15.9-50.9,28.43-12.09,6.58-28.44,15.47-33.19,31-7.34,24,17.2,50.32,16.17,50.89-.6.34-8.86-9-9.87-22.3A39.65,39.65,0,0,1,32.72,156.11Z"/><path class="cls-10" d="M169.57,104.7c4.28-.37,16-1.38,26.56-8.93,14.42-10.37,10.7-21.69,23-28.34,11.85-6.43,18,2.68,32.42-3.07,12.17-4.85,22.76-17.31,26.81-30.13,3.59-11.35,1.31-20.59,9.19-27.31,4-3.42,9.06-4.84,9.19-4.6s-6,2.45-10,7.79c-3.57,4.78-3.51,9.62-4,16.4-.63,8.45-1.59,21.42-5.55,31-3.73,9-9.77,14.31-15.64,19.43-15.76,13.74-26.28,11.46-34.55,22.81-3.16,4.33-6.62,11.52-6.45,23.51-17.15.17-39.69,3.44-55.83,19.11-20.49,19.91-21.57,51-31.17,50.48-5.76-.29-9.9-11.7-11.23-17.7-2.23-10,.9-16.11,4.42-30,7.57-29.72,2.6-38.73,10.21-43.23C144.66,97.39,150.56,106.34,169.57,104.7Z"/><path class="cls-10" d="M190.34,74.23c-.57-.24.6-7.72,5.45-13.78,2.64-3.31,4.68-4.06,14.12-9.88,8.83-5.43,13.24-8.15,14.3-9.7,6.67-9.77-.18-25.13,1.36-25.53.72-.18,2.32,3,3.24,6,2.48,7.89,1.46,18.49-4.77,24-.26.23-2.44,1.46-6.81,3.91-10.37,5.84-9.79,5.26-11.23,6.3a49,49,0,0,0-11.57,12.43C191.66,71.93,190.68,74.38,190.34,74.23Z"/><path class="cls-10" d="M47,91.3c1.43.1-.66-14.86,8-22.21,6.86-5.8,13-.65,23.62-6.13C88.2,58,96.21,47.16,94.13,39.6c-1.59-5.78-8.08-6.06-8.68-11.49-.83-7.48,10.67-13.75,10-14.68C94.92,12.8,89.14,15,86,20.19c-1.92,3.13-3.67,8.6-1.41,11.75.11.15.09.09,3.19,2.93s3.49,3.22,3.83,3.83c1.29,2.29.63,4.93.26,6.39-1.35,5.36-6.72,12.42-15.32,15.31s-11.17-1.62-18.13,1.66C49.62,66.2,46.9,76.55,46.51,78.15,44.9,84.72,46.08,91.23,47,91.3Z"/><path class="cls-4" d="M221.56,98.75q-1.62,3.87-5.15,12.17c-1.28,3-2.23,5.43-2.86,7.36-.19.7-.49,1.73-.91,3.1a2.39,2.39,0,0,1-2.2,1.77,3,3,0,0,1-1.91-.4,1.85,1.85,0,0,1-1-1.42q-.15-1.5,3-9.3-2.42-3.27-7.55-9.61l-1-1.14a2.54,2.54,0,0,1-.64-1.3,2,2,0,0,1,.63-1.62,2.81,2.81,0,0,1,1.76-.86,2.43,2.43,0,0,1,2,.59,61.79,61.79,0,0,1,7.09,8.52c1.05-2.69,1.68-4.31,1.91-4.87a49.25,49.25,0,0,1,2.12-4.49,2.53,2.53,0,0,1,2.06-1.4,3,3,0,0,1,1.91.42,1.81,1.81,0,0,1,1,1.41A2.1,2.1,0,0,1,221.56,98.75Z"/><path class="cls-4" d="M162,132.22a2.45,2.45,0,0,1-2.91.71,24.91,24.91,0,0,0-6.44-1.11c-3.58-.24-5.87.17-6.86,1.25l-.9,1c.4.36,1,.95,1.91,1.77l2,1.83.81.67c.41.34.73.61,1,.82q2.84,2.59,1,4.64a2.92,2.92,0,0,1-1.68,1,1.81,1.81,0,0,1-1.63-.48c-.57-.51-1.39-1.32-2.48-2.42s-1.92-1.91-2.48-2.43q-1.62-1.47-5-4.29t-5-4.28q-2.25-2.07-.45-4a2.75,2.75,0,0,1,1.7-1,1.87,1.87,0,0,1,1.62.49c.81.74,2.63,2.32,5.44,4.74a5.94,5.94,0,0,0,.93-4.88c-.39-1.58-.79-3.17-1.19-4.77a6.08,6.08,0,0,1,1.7-5,5.07,5.07,0,0,1,1.67-1.18c.81-.36,1.41-.36,1.79,0a1.86,1.86,0,0,1,.59,1.14,1.58,1.58,0,0,1-.42,1.36q-1,1.08.33,4.49a8.32,8.32,0,0,1,.31,5.57,23.48,23.48,0,0,1,8.35-.69c3.38.23,5.57.79,6.57,1.71a1.8,1.8,0,0,1,.56,1.6A3,3,0,0,1,162,132.22Z"/><path class="cls-4" d="M179.93,122.08a5.76,5.76,0,0,1-3.07.12,27.9,27.9,0,0,1-2.06,2.44,8.7,8.7,0,0,1-1.73,1.43q-3.87,2.25-6.86,1.57t-5.08-4.29a8.43,8.43,0,0,1-.5-7.44,11.88,11.88,0,0,1,5.44-6.38,12.08,12.08,0,0,1,4-1.31c2-.34,3.19-.11,3.65.69a1.39,1.39,0,0,1,.14,1.08,9,9,0,0,0,.56,1.54c.27.6.62,1.27,1.05,2a13.8,13.8,0,0,0,2.66,3.56c.08.07.6.4,1.57,1a8.12,8.12,0,0,1,1.42,1,1.67,1.67,0,0,1,.06,1.6A2.82,2.82,0,0,1,179.93,122.08Zm-9.48-7.14a9.09,9.09,0,0,1-.53-1.08c-.18-.41-.36-.89-.54-1.42a4.74,4.74,0,0,0-.69.13,2.28,2.28,0,0,0-.46.19,6.29,6.29,0,0,0-2.95,3.71,5.25,5.25,0,0,0,.37,4.41,5,5,0,0,0,2.41,2.37,3.24,3.24,0,0,0,2.86-.4,6.7,6.7,0,0,0,1.72-1.38,7,7,0,0,0,1.19-1.83A43,43,0,0,1,170.45,114.94Z"/><path class="cls-4" d="M200,116.65a2.85,2.85,0,0,1-1.93-.17,1.88,1.88,0,0,1-1-1.3c-.18-.8-.53-2-1-3.5s-.86-2.7-1-3.49c-.13-.58-.37-1.86-.73-3.84l-6.83,1.5c-.44.1-1,.28-1.78.53q.18.7,1,3.3c.42,1.35.73,2.45.92,3.3a18.93,18.93,0,0,1,.32,2.16,21.83,21.83,0,0,0,.32,2.17,1.88,1.88,0,0,1-.39,1.63,2.93,2.93,0,0,1-1.68,1,2.87,2.87,0,0,1-1.94-.18,1.9,1.9,0,0,1-1.05-1.31,19.06,19.06,0,0,1-.31-2.16,19.69,19.69,0,0,0-.31-2.17c-.2-.9-.59-2.25-1.15-4s-.94-3.12-1.15-4a2.23,2.23,0,0,1,.44-1.93,3.31,3.31,0,0,1,2-1.18,18.35,18.35,0,0,0,1.92-.6,18.37,18.37,0,0,1,1.94-.6l4.7-1c2.1-.45,3.67-.79,4.71-1a2.76,2.76,0,0,1,1.9.22,1.85,1.85,0,0,1,1.08,1.27c.15.64.33,1.61.56,2.9s.42,2.24.56,2.88c.18.81.54,2,1.06,3.55s.88,2.73,1.06,3.55a1.84,1.84,0,0,1-.38,1.62A2.93,2.93,0,0,1,200,116.65Z"/><path class="cls-4" d="M239.36,114.53a2.86,2.86,0,0,1-1.86-.6,1.84,1.84,0,0,1-.74-1.5c0-1,0-2.38-.08-4.15a13.87,13.87,0,0,1-4.89.89q-4.36,0-6.31-2.48c-1.26-1.59-1.88-4.1-1.88-7.54,0-2.06.9-3.1,2.71-3.1a2.82,2.82,0,0,1,1.85.6,1.89,1.89,0,0,1,.74,1.53,2.79,2.79,0,0,1-.06.48,3,3,0,0,0-.06.49q0,3.88.84,5c.43.62,1.34.92,2.73.92a6.8,6.8,0,0,0,2.32-.54,5.23,5.23,0,0,0,2-1.19q0-.43,0-1.8c0-.87,0-1.44,0-1.7a7.68,7.68,0,0,0-.07-.91c0-.4-.06-.7-.06-.89a1.75,1.75,0,0,1,.78-1.48,3,3,0,0,1,1.84-.58c1.8,0,2.69,1.13,2.69,3.39,0,.27,0,.63,0,1.07s0,.74,0,.91q0,1.73.06,5.52c0,2.52.05,4.36.05,5.52a1.86,1.86,0,0,1-.73,1.5A2.84,2.84,0,0,1,239.36,114.53Z"/><path class="cls-4" d="M262.5,117.67a1.92,1.92,0,0,1-1.06,1.29,3.08,3.08,0,0,1-3.58-.83,1.88,1.88,0,0,1-.38-1.63c.15-.63.4-1.57.77-2.83s.63-2.19.77-2.82.25-1.2.34-1.85a34.65,34.65,0,0,1-7.36,4.43q-2.79,1.11-4.19,1.83a4,4,0,0,1-2.75.4,3.67,3.67,0,0,1-1.69-.86,1.7,1.7,0,0,1-.57-1.71c.65-2.79,1.26-5.72,1.85-8.78l.88-4.67a1.92,1.92,0,0,1,1-1.33,2.8,2.8,0,0,1,2-.17,2.31,2.31,0,0,1,2,2.4c0,.18-.17,1.22-.55,3.11l-1.22,6a53.47,53.47,0,0,0,6-3.38c.5-.33,2.37-1.59,5.6-3.81a3.93,3.93,0,0,1,3.17-.74,2.77,2.77,0,0,1,1.64,1,1.88,1.88,0,0,1,.38,1.63c-.26,1.1-.61,2.74-1.07,4.95s-.82,3.84-1.08,4.94c-.09.38-.24.94-.47,1.69S262.58,117.29,262.5,117.67Z"/><path class="cls-4" d="M277.62,128.16a2.86,2.86,0,0,1-1.33-1.43,1.84,1.84,0,0,1,.09-1.68c.45-.82,1.26-2.3,2.4-4.45l-.53-.29a42.22,42.22,0,0,0-7.11-3.18c-.22.36-.65,1-1.29,1.9a22.74,22.74,0,0,0-1.27,2,1.87,1.87,0,0,1-1.38,1,2.86,2.86,0,0,1-1.91-.38,2.93,2.93,0,0,1-1.32-1.43,1.9,1.9,0,0,1,.11-1.69,9.12,9.12,0,0,1,.88-1.22,8.73,8.73,0,0,0,.89-1.22c.29-.53.72-1.33,1.28-2.41s1-1.89,1.29-2.41l1.38-2.46c.61-1.08,1.08-1.9,1.39-2.46a1.84,1.84,0,0,1,1.38-1,2.82,2.82,0,0,1,1.9.37,2.88,2.88,0,0,1,1.33,1.44,1.82,1.82,0,0,1-.09,1.67c-.33.61-.75,1.37-1.23,2.29l-1.2,2.26a45.64,45.64,0,0,1,7.49,3.54l.18-.31c.27-.48.67-1.16,1.22-2s.94-1.54,1.2-2a1.85,1.85,0,0,1,1.39-1,2.86,2.86,0,0,1,1.91.38,2.8,2.8,0,0,1,1.32,1.43,1.88,1.88,0,0,1-.09,1.67c-.27.47-.67,1.14-1.22,2s-.94,1.55-1.21,2q-.81,1.44-2.28,4.24t-2.29,4.24a1.86,1.86,0,0,1-1.38.95A2.77,2.77,0,0,1,277.62,128.16Z"/><path class="cls-4" d="M293.52,136.15a12.46,12.46,0,0,1-7.18-2,6.61,6.61,0,0,1-3.18-5.66,10.49,10.49,0,0,1,2.94-7.18,11,11,0,0,1,8.57-3.74q10,0,10,7.68a10.8,10.8,0,0,1-2.7,7.13A10.46,10.46,0,0,1,293.52,136.15Zm1.15-14.35a5.59,5.59,0,0,0-4.31,2.07,6.73,6.73,0,0,0-1.84,4.59,2.86,2.86,0,0,0,1.4,2.48,6.24,6.24,0,0,0,3.6,1,5.15,5.15,0,0,0,4.1-2.08,6.94,6.94,0,0,0,1.66-4.6,3.18,3.18,0,0,0-1-2.72A6.63,6.63,0,0,0,294.67,121.8Z"/></svg>